<?xml version="1.0" encoding="UTF-8" standalone="no"?>
<svg
   xmlns:dc="http://purl.org/dc/elements/1.1/"
   xmlns:cc="http://creativecommons.org/ns#"
   xmlns:rdf="http://www.w3.org/1999/02/22-rdf-syntax-ns#"
   xmlns:svg="http://www.w3.org/2000/svg"
   xmlns="http://www.w3.org/2000/svg"
   xmlns:sodipodi="http://sodipodi.sourceforge.net/DTD/sodipodi-0.dtd"
   xmlns:inkscape="http://www.inkscape.org/namespaces/inkscape"
   width="640"
   height="480"
   id="svg2"
   version="1.1"
   inkscape:version="0.48.3.1 r9886"
   sodipodi:docname="hot_air_balloon_green_white.svg">
  <metadata
     id="metadata20">
    <rdf:RDF>
      <cc:Work
         rdf:about="">
        <dc:format>image/svg+xml</dc:format>
        <dc:type
           rdf:resource="http://purl.org/dc/dcmitype/StillImage" />
        <dc:title>hot air balloon grey</dc:title>
      </cc:Work>
    </rdf:RDF>
  </metadata>
  <defs
     id="defs18" />
  <sodipodi:namedview
     pagecolor="#ffffff"
     bordercolor="#666666"
     borderopacity="1"
     objecttolerance="10"
     gridtolerance="10"
     guidetolerance="10"
     inkscape:pageopacity="0"
     inkscape:pageshadow="2"
     inkscape:window-width="1523"
     inkscape:window-height="652"
     id="namedview16"
     showgrid="false"
     inkscape:zoom="0.49166667"
     inkscape:cx="320"
     inkscape:cy="240"
     inkscape:window-x="126"
     inkscape:window-y="207"
     inkscape:window-maximized="0"
     inkscape:current-layer="svg2" />
  <title
     id="title4">hot air balloon grey</title>
  <g
     id="g6">
    <path
       id="svg_1"
       fill-rule="evenodd"
       clip-rule="evenodd"
       fill="#ffa163"
       d="m315.121002,389.473999c4.308014,-1.950989 13.43399,-8.286011 13.43399,-8.286011c150.833008,-88.166992 150.820984,-139.820007 153.475037,-156.311005c1.927979,-11.983002 17.940979,-83.381012 -22,-128c-34.167969,-38.166992 -54,-36 -54,-36c0,0 -12.099976,5.988007 -21.307007,-5.485001c-8.372986,-10.432003 -19.705017,-12.632004 -27.984009,-5.907001c-6.804993,5.527996 -17.475006,-2.875 -25.708984,-3.606991c-35.022003,-3.117001 -33.532013,2.741001 -43.5,2.417999c-28.333984,-0.917999 -36.382996,14.530998 -43.5,17.582001c-18.432007,7.898987 -66.346008,31.658997 -70.325989,92.997986c-0.552002,8.502014 -8.708008,41.326996 2.372986,67.104004c17.786987,41.375 32.104004,60.108002 51.278015,88.752991c19.174011,28.644958 46.662994,63.470032 46.662994,63.470032c0,0 3.134003,3.353027 3.243011,4.815002c0.248993,3.330017 9.761993,6.093018 21.533997,7.65802c6.31897,0.839966 10.789948,1.302979 16.325958,-1.202026z"
       stroke="#000000"
       stroke-width="3"
       style="fill:#34cbd8;fill-opacity:1" />
    <path
       id="svg_2"
       fill-rule="evenodd"
       clip-rule="evenodd"
       fill="#ffa163"
       d="m484.028992,224.877014c-2.585999,-84.082001 -62.814026,-110.518005 -119,-141.000008c-56.080994,-6.29998 -97.222992,12.670021 -128,42.000008c-22.753998,21.684998 -43.708008,53.596008 -44,90c-0.332001,41.403015 19.170013,73.949005 38,101c-25.140015,-32.088989 -60.96701,-80.43399 -59,-134c1.024994,-27.920013 18.743011,-57.381989 34,-72.000008c9.786987,-9.377007 25.942993,-17.864006 41,-25c33.964996,-16.095993 75.278015,-13.442986 115,-3c-27.003998,-17.970993 -76.450989,-32.382988 -116,-17c28.141998,-34.028988 94.458008,-12.772987 116,14c-5.140991,-15.858986 -13.402008,-28.597988 -29,-33.999996c22.862,-11.492001 35.036011,10.89101 34,32.999996c3.877014,-15.936989 26.833984,-36.450996 41,-18c-15.205017,4.796013 -27.611023,12.390022 -39,21c27.182007,-15.862999 82.359009,-14.650993 93,15c-19.838013,-11.937973 -57.875,-20.65799 -92,-13c59.770996,10.562027 120.185974,22.316017 121,90.000008c0.356018,29.658997 -4.885986,36.446991 -7,51z"
       stroke="#000000"
       stroke-width="3"
       style="fill:#ebf0ff;fill-opacity:1" />
    <path
       id="svg_3"
       fill-rule="evenodd"
       clip-rule="evenodd"
       fill="#ffa163"
       d="m316.196014,393.877991c0.404999,-0.973022 -2.472015,-0.46698 0.924988,-4.403992c58.09201,-36.351013 136.331024,-75.240997 128.909027,-171.596985c-2.557007,-33.195007 -19.268005,-58.243988 -35,-81c-13.200989,-19.092987 -30.138977,-41.582001 -46,-53.000008c12.690979,39.307014 30.994019,89.392006 26,143.000008c-2.838013,30.464996 -17.382996,61.368988 -30,87c-5.881012,11.944 -43.109009,90.263 -63.02301,74.984009c6.845001,-107.867004 4.951996,-232.104004 55.856995,-294.149994c1.765991,-2.152008 7,-6 11.166016,-10.834023c-33.721985,9.424995 -64.234985,22.035011 -85,44.000008c-21.179016,22.401001 -39.113007,62.144012 -41,100c-1.722992,34.578003 7.962006,59.459991 16,87c6.502991,22.278992 26.705994,68.140991 27.320984,71.992004c0.553986,3.472961 32.178986,11.007996 33.845001,7.008972zm-12.167023,3.999023"
       stroke="#000000"
       stroke-width="3"
       style="fill:#ffffff;fill-opacity:1" />
    <path
       id="svg_4"
       fill-rule="evenodd"
       clip-rule="evenodd"
       fill="#663300"
       d="m309.315002,434.26001c-0.846008,5.437012 -6.839996,9.018005 -13.389008,8l-13.832001,-2.151001c-6.549011,-1.018005 -11.174011,-6.247986 -10.328003,-11.685974l2.804993,-18.046997c0.846008,-5.437012 6.839996,-9.018982 13.389008,-8.000977l13.832001,2.151001c6.549011,1.018005 11.174011,6.25 10.328003,11.687012l-2.804993,18.046936z"
       stroke="#000000"
       stroke-width="3"
       style="fill:#924a00;fill-opacity:1" />
    <ellipse
       id="svg_5"
       transform="matrix(0.9868 0.1618 -0.1618 0.9868 102.388 -63.0457)"
       fill-rule="evenodd"
       clip-rule="evenodd"
       fill="#050000"
       cx="265.469758"
       cy="439.090445"
       rx="15.402"
       ry="6.999"
       stroke="#000000"
       stroke-width="3"
       style="fill:#5e0000;fill-opacity:1" />
    <path
       id="svg_6"
       fill-rule="evenodd"
       clip-rule="evenodd"
       fill="#ffa163"
       d="m317.121002,389.473999l-21.257996,8.403015c-21.666992,-2.499023 -29.28598,-21.552002 -16.602997,-14.859009c12.682983,6.692993 22.936005,6.539978 37.860992,6.455994z"
       stroke="#000000"
       stroke-width="3" />
    <title
       id="title14">Layer 1</title>
  </g>
</svg>
